<svg width="19" height="19" viewBox="0 0 19 19" fill="none" xmlns="http://www.w3.org/2000/svg"><path fill-rule="evenodd" clip-rule="evenodd" d="M19 9.5c0 5.2467-4.2533 9.5-9.5 9.5C4.25329 19 0 14.7467 0 9.5 0 4.25329 4.25329 0 9.5 0 14.7467 0 19 4.25329 19 9.5zM6.36163 8.62977c-.95165.4155-1.92946.84243-2.82357 1.33492l-.00007.00008c-.46687.34183.1537.58363.73585.81043.09254.036.18412.0717.2702.1073.07164.0221.14449.0453.2183.0688.64746.2063 1.36941.4363 1.99798.0903 1.03255-.5932 2.00699-1.27893 2.98068-1.96416.319-.22451.6379-.44895.9588-.67006.015-.00962.032-.02062.0505-.03264.2734-.17719.8881-.57567.6608-.02659-.5378.58805-1.1137 1.1086-1.69282 1.63199-.39027.35276-.78197.70676-1.16435 1.08356-.33304.2706-.67885.8148-.30594 1.1937.8589.6013 1.73122 1.188 2.60301 1.7743.2838.1909.5674.3817.8506.5729.4798.3831 1.2297.0732 1.3352-.5254.0469-.2754.094-.5508.1411-.8262.2603-1.5218.5207-3.0442.7507-4.571.0313-.23949.0667-.47898.1022-.71859.0859-.58073.1719-1.16217.1988-1.74602-.0693-.58265-.7757-.45454-1.1689-.32353-2.0208.76895-4.02143 1.59489-6.01413 2.43541-.22574.10001-.45457.19992-.68494.3005z" fill="#2E2E2E"/></svg>